<svg xmlns="http://www.w3.org/2000/svg" viewBox="0 0 448 512" width="32" height="32">
  <!-- Fork and Knife Icon (utensils) - optimized for favicon -->
  <path fill="#F59E0B" d="M416 0c-17.7 0-32 14.3-32 32v128c0 17.7 14.3 32 32 32s32-14.3 32-32V32c0-17.7-14.3-32-32-32zM384 192c0-17.7-14.3-32-32-32s-32 14.3-32 32v256c0 17.7 14.3 32 32 32s32-14.3 32-32V192zM256 0c-17.7 0-32 14.3-32 32v128c0 17.7 14.3 32 32 32s32-14.3 32-32V32c0-17.7-14.3-32-32-32zM224 192c0-17.7-14.3-32-32-32s-32 14.3-32 32v256c0 17.7 14.3 32 32 32s32-14.3 32-32V192zM96 0C78.3 0 64 14.3 64 32v128c0 17.7 14.3 32 32 32s32-14.3 32-32V32c0-17.7-14.3-32-32-32zM64 192c0-17.7-14.3-32-32-32S0 174.3 0 192v256c0 17.7 14.3 32 32 32s32-14.3 32-32V192z"/>
</svg>
